ModelForces
version=1
nRows=4
nColumns=158
inDegrees=no

This file contains the forces exerted on a model during a simulation.

A force is a generalized force, meaning that it can be either a force (N) or a torque (Nm).

Units are S.I. units (second, meters, Newtons, ...)
Angles are in degrees.

endheader
time	glut_med1_r	glut_med2_r	glut_med3_r	glut_min1_r	glut_min2_r	glut_min3_r	semimem_r	semiten_r	bifemlh_r	bifemsh_r	sar_r	add_long_r	add_brev_r	add_mag1_r	add_mag2_r	add_mag3_r	tfl_r	pect_r	grac_r	glut_max1_r	glut_max2_r	glut_max3_r	iliacus_r	psoas_r	quad_fem_r	gem_r	peri_r	rect_fem_r	vas_med_r	vas_int_r	vas_lat_r	med_gas_r	lat_gas_r	soleus_r	tib_post_r	flex_dig_r	flex_hal_r	tib_ant_r	per_brev_r	per_long_r	per_tert_r	ext_dig_r	ext_hal_r	glut_med1_l	glut_med2_l	glut_med3_l	glut_min1_l	glut_min2_l	glut_min3_l	semimem_l	semiten_l	bifemlh_l	bifemsh_l	sar_l	add_long_l	add_brev_l	add_mag1_l	add_mag2_l	add_mag3_l	tfl_l	pect_l	grac_l	glut_max1_l	glut_max2_l	glut_max3_l	iliacus_l	psoas_l	quad_fem_l	gem_l	peri_l	rect_fem_l	vas_med_l	vas_int_l	vas_lat_l	med_gas_l	lat_gas_l	soleus_l	tib_post_l	flex_dig_l	flex_hal_l	tib_ant_l	per_brev_l	per_long_l	per_tert_l	ext_dig_l	ext_hal_l	ercspn_r	ercspn_l	intobl_r	intobl_l	extobl_r	extobl_l	femur_lat_meniscii_r.femur_lat_r.force.X	femur_lat_meniscii_r.femur_lat_r.force.Y	femur_lat_meniscii_r.femur_lat_r.force.Z	femur_lat_meniscii_r.femur_lat_r.torque.X	femur_lat_meniscii_r.femur_lat_r.torque.Y	femur_lat_meniscii_r.femur_lat_r.torque.Z	femur_lat_meniscii_r.meniscus_lat_r.force.X	femur_lat_meniscii_r.meniscus_lat_r.force.Y	femur_lat_meniscii_r.meniscus_lat_r.force.Z	femur_lat_meniscii_r.meniscus_lat_r.torque.X	femur_lat_meniscii_r.meniscus_lat_r.torque.Y	femur_lat_meniscii_r.meniscus_lat_r.torque.Z	femur_med_meniscii_r.femur_med_r.force.X	femur_med_meniscii_r.femur_med_r.force.Y	femur_med_meniscii_r.femur_med_r.force.Z	femur_med_meniscii_r.femur_med_r.torque.X	femur_med_meniscii_r.femur_med_r.torque.Y	femur_med_meniscii_r.femur_med_r.torque.Z	femur_med_meniscii_r.meniscus_med_r.force.X	femur_med_meniscii_r.meniscus_med_r.force.Y	femur_med_meniscii_r.meniscus_med_r.force.Z	femur_med_meniscii_r.meniscus_med_r.torque.X	femur_med_meniscii_r.meniscus_med_r.torque.Y	femur_med_meniscii_r.meniscus_med_r.torque.Z	femur_med_tibia_r.tibia_upper_r.force.X	femur_med_tibia_r.tibia_upper_r.force.Y	femur_med_tibia_r.tibia_upper_r.force.Z	femur_med_tibia_r.tibia_upper_r.torque.X	femur_med_tibia_r.tibia_upper_r.torque.Y	femur_med_tibia_r.tibia_upper_r.torque.Z	femur_med_tibia_r.femur_med_r.force.X	femur_med_tibia_r.femur_med_r.force.Y	femur_med_tibia_r.femur_med_r.force.Z	femur_med_tibia_r.femur_med_r.torque.X	femur_med_tibia_r.femur_med_r.torque.Y	femur_med_tibia_r.femur_med_r.torque.Z	femur_lat_tibia_r.tibia_upper_r.force.X	femur_lat_tibia_r.tibia_upper_r.force.Y	femur_lat_tibia_r.tibia_upper_r.force.Z	femur_lat_tibia_r.tibia_upper_r.torque.X	femur_lat_tibia_r.tibia_upper_r.torque.Y	femur_lat_tibia_r.tibia_upper_r.torque.Z	femur_lat_tibia_r.femur_lat_r.force.X	femur_lat_tibia_r.femur_lat_r.force.Y	femur_lat_tibia_r.femur_lat_r.force.Z	femur_lat_tibia_r.femur_lat_r.torque.X	femur_lat_tibia_r.femur_lat_r.torque.Y	femur_lat_tibia_r.femur_lat_r.torque.Z	aACL_R	pACL_R	aPCL_R	pPCL_R	aMCL_R	mMCL_R	pMCL_R	aLCL_R	mLCL_R	pLCL_R	aPCL_L	pPCL_L	aMCL_L	aLCL_L	ground_prescribedForce_0_fx	ground_prescribedForce_0_fy	ground_prescribedForce_0_fz
      0.00000000	     37.48087652	     28.28714471	     30.25598133	     13.28977762	     14.47626353	     15.91713841	     41.91604554	     20.39409361	     37.70804409	     36.02754664	      7.58998984	     27.93927808	     20.68957741	     14.51222487	     12.16230296	     19.66717628	     12.69197704	     11.16605282	      7.77608382	     18.12681708	     27.55933735	     20.56469162	     63.94906620	     55.74758807	     18.09791099	      9.16719286	     20.03897647	     52.55469672	     32.38176469	     32.82510377	     40.14722941	     67.39492298	     31.74693446	    152.72720615	     92.44658902	     14.93332009	     15.26895791	     41.82851940	     21.62523106	     46.40594865	      8.86060096	     25.04818486	      7.96045570	     37.48087652	     28.28714471	     30.25598133	     13.28977762	     14.47626353	     15.91713841	     42.06683902	     20.39635155	     37.67631238	     36.01822118	      7.59254209	     27.93927808	     20.68957741	     14.51222487	     12.16230296	     19.66717628	     12.58139899	     11.16605282	      7.78214370	     18.12681708	     27.55933735	     20.56469162	     63.94906620	     55.74758807	     18.09791099	      9.16719286	     20.03897647	     52.59637061	     32.48786114	     37.22481259	     39.87514307	     67.71424671	     31.64857027	    152.72720615	     92.44658902	     14.93332009	     15.26895791	     41.82851940	     21.62523106	     46.40594865	      8.86060096	     25.04818486	      7.96045570	    124.99446086	    124.99446086	     44.97041513	     44.97041513	     60.98287244	     60.98287244	      0.13243531	      0.28299364	      0.00246511	     -0.00837665	      0.00349976	      0.05534422	     -0.13243531	     -0.28299364	     -0.00246511	      0.00891056	     -0.00419209	     -0.00454827	      0.08239412	      3.64420958	      0.29868801	     -0.04628927	     -0.00646305	      0.09076941	     -0.08239412	     -3.64420958	     -0.29868801	     -0.04962961	      0.00624440	     -0.06164219	      0.00000000	      0.00000000	      0.00000000	      0.00000000	      0.00000000	      0.00000000	      0.00000000	      0.00000000	      0.00000000	      0.00000000	      0.00000000	      0.00000000	      0.00000000	      0.00000000	      0.00000000	      0.00000000	      0.00000000	      0.00000000	      0.00000000	      0.00000000	      0.00000000	      0.00000000	      0.00000000	      0.00000000	     17.58855542	     41.35427838	      0.00000000	      0.00000000	      0.00000000	      4.34794595	     47.41152007	      1.86146449	      0.00000000	      2.98101398	      0.00000000	      0.00000000	      0.00000001	      0.00000000	    110.00000000	      0.00000000	      0.00000000
      0.00100000	     37.47068608	     28.27022932	     30.24086714	     13.26950867	     14.46480712	     15.91260065	     40.68215445	     19.66672082	     36.60434497	     32.47341942	      7.02232256	     27.92554748	     20.64313666	     14.50364319	     12.15716021	     19.66293667	     12.42352939	     11.15324218	      7.25172574	     18.11779344	     27.54583488	     20.55620729	     63.92578024	     55.73415570	     18.08271668	      9.16509816	     20.03713766	     50.94758550	     29.68959018	     30.12147064	     37.22904695	     64.42035968	     30.33694594	    148.28577745	     92.08210419	     14.98341561	     15.27516812	     43.16959076	     21.41699737	     46.11261638	      9.18858153	     25.31149318	      8.06359257	     37.47068608	     28.27022932	     30.24086714	     13.26950867	     14.46480712	     15.91260065	     42.06228881	     20.39020965	     37.67123261	     35.98888344	      7.57882260	     27.92554748	     20.64313666	     14.50364319	     12.15716021	     19.66293667	     12.58033419	     11.15324218	      7.77413879	     18.11779344	     27.54583488	     20.55620729	     63.92578024	     55.73415570	     18.08271668	      9.16509816	     20.03713766	     52.58867645	     32.47668845	     37.21372981	     39.86386325	     67.70976811	     31.64643975	    152.71327822	     92.44307771	     14.93402208	     15.26942871	     41.82127614	     21.62263156	     46.40335095	      8.85785788	     25.04326423	      7.95848292	    124.81723588	    124.81723588	     44.95337082	     44.95337082	     60.96445217	     60.96445217	      0.42295912	      1.39167803	      0.04174985	     -0.05403832	      0.01135097	      0.17927127	     -0.42295912	     -1.39167803	     -0.04174985	      0.04524979	     -0.01353606	     -0.01739944	      0.96457100	      7.72278043	      0.72158067	     -0.13673767	     -0.03084351	      0.50934954	     -0.96457100	     -7.72278043	     -0.72158067	     -0.10065870	      0.02630164	     -0.14340084	      0.00000000	      0.00000000	      0.00000000	      0.00000000	      0.00000000	      0.00000000	      0.00000000	      0.00000000	      0.00000000	      0.00000000	      0.00000000	      0.00000000	      0.00000000	      0.00000000	      0.00000000	      0.00000000	      0.00000000	      0.00000000	      0.00000000	      0.00000000	      0.00000000	      0.00000000	      0.00000000	      0.00000000	     -9.40236855	     12.44155141	      0.00000000	      0.00000000	      0.00000000	    -52.58718622	     -9.31243503	    -74.51429067	      0.00000000	    -73.75491766	      0.00000000	      0.00000000	      0.00000001	      0.00000000	    110.00000000	      0.00000000	      0.00000000
      0.00342139	     37.36348153	     28.10195426	     30.08795779	     13.09691090	     14.35483559	     15.86496563	     34.26109149	     16.22649210	     31.17895981	     20.91797385	      5.69197110	     27.78646233	     20.29156498	     14.41819242	     12.10445537	     19.61790451	     10.93500873	     11.03710969	      5.52320530	     18.02649767	     27.40903940	     20.46910191	     63.68800344	     55.59223787	     17.93765310	      9.14301755	     20.01717935	     42.90886324	     18.49326328	     18.54287051	     24.35489960	     47.08491978	     22.17190041	    116.56678384	     89.43005191	     15.54919637	     15.47773642	     54.62011370	     19.67138461	     43.64708800	     11.75116731	     27.17704027	      8.80766738	     37.36348153	     28.10195426	     30.08795779	     13.09691090	     14.35483559	     15.86496563	     42.01305813	     20.32590904	     37.61651466	     35.70758022	      7.46729335	     27.78646233	     20.29156498	     14.41819242	     12.10445537	     19.61790451	     12.56878433	     11.03710969	      7.70010957	     18.02649767	     27.40903940	     20.46910191	     63.68800344	     55.59223787	     17.93765310	      9.14301755	     20.01717935	     52.50595436	     32.36063310	     37.09768773	     39.74546472	     67.66094182	     31.62321565	    152.56208676	     92.40469117	     14.94120478	     15.27408406	     41.74376144	     21.59454975	     46.37497221	      8.82922011	     24.99094853	      7.93761993	    123.28109410	    123.28109410	     44.77731144	     44.77731144	     60.77567136	     60.77567136	      6.71633644	     22.44300208	      3.24955510	     -1.95507916	      0.17216747	      2.88572856	     -6.71633644	    -22.44300208	     -3.24955510	      0.82050488	     -0.20473828	     -0.31578617	     11.30716039	     46.55410656	      8.82235997	     -2.72886315	     -0.33350167	      5.25615968	    -11.30716039	    -46.55410656	     -8.82235997	     -0.42558175	      0.28079557	     -0.93515031	      0.00000000	      0.00000000	      0.00000000	      0.00000000	      0.00000000	      0.00000000	      0.00000000	      0.00000000	      0.00000000	      0.00000000	      0.00000000	      0.00000000	      0.00000000	      0.00000000	      0.00000000	      0.00000000	      0.00000000	      0.00000000	      0.00000000	      0.00000000	      0.00000000	      0.00000000	      0.00000000	      0.00000000	    -23.13384671	     -7.59427537	      0.00000000	      0.00000000	      0.00000000	    -71.09690650	    -29.31142225	   -106.05179279	      0.00000000	   -104.93476969	      0.00000000	      0.00000000	      0.00000001	      0.00000000	    110.00000000	      0.00000000	      0.00000000
      0.00584278	     37.14537894	     27.78515998	     29.79344081	     12.82824179	     14.15727953	     15.76835627	     29.72927261	     14.29206442	     27.64477186	     18.46273258	      5.67212087	     27.51810485	     19.80603019	     14.25709277	     12.00110263	     19.52500508	      9.69511165	     10.84277345	      5.20363753	     17.85060007	     27.14499886	     20.29787309	     63.22403409	     55.30172744	     17.67885859	      9.09796229	     19.97467817	     37.60107773	     14.24276109	     13.62095960	     18.52715312	     31.58024737	     14.89171447	     80.30081521	     85.43821582	     16.55667754	     15.94686316	     66.27461576	     17.55445276	     40.40377912	     14.00561584	     29.51114053	      9.69301716	     37.14537894	     27.78515998	     29.79344081	     12.82824179	     14.15727953	     15.76835627	     41.90870984	     20.19600252	     37.50129415	     35.20293682	      7.30211274	     27.51810485	     19.80603019	     14.25709277	     12.00110263	     19.52500508	     12.54421179	     10.84277345	      7.57320806	     17.85060007	     27.14499886	     20.29787309	     63.22403409	     55.30172744	     17.67885859	      9.09796229	     19.97467817	     52.33225880	     32.12867790	     36.86313980	     39.50527811	     67.55627428	     31.57344187	    152.24006062	     92.32205792	     14.95490592	     15.28235676	     41.58210420	     21.53516945	     46.31395166	      8.77159013	     24.88332698	      7.89505450	    120.84193980	    120.84193980	     44.42831107	     44.42831107	     60.40537651	     60.40537651	     22.61051472	     58.34323035	     10.94420709	     -6.09588270	      0.56074358	      9.68841984	    -22.61051472	    -58.34323035	    -10.94420709	      2.18094057	     -0.66877320	     -1.02432449	     29.48027915	     89.60705799	     20.49626557	     -6.72526263	     -0.84036078	     13.34335743	    -29.48027915	    -89.60705799	    -20.49626557	     -0.70549722	      0.70274786	     -2.05388803	     -5.31406367	    -38.14981773	      8.56922037	     -0.67371354	     -0.06682065	     -0.71816142	      5.31406367	     38.14981773	     -8.56922037	      4.16072616	      0.03563477	      2.74173778	      0.00000000	      0.00000000	      0.00000000	      0.00000000	      0.00000000	      0.00000000	      0.00000000	      0.00000000	      0.00000000	      0.00000000	      0.00000000	      0.00000000	     -9.00789192	      2.98030022	      0.00000000	      0.00000000	      0.00000000	    -40.42776508	     -0.31126725	    -73.61594846	      0.00000000	    -71.75059488	      0.00000000	      0.00000000	      0.00000001	      0.00000000	    110.00000000	      0.00000000	      0.00000000
